<?xml version="1.0" encoding="UTF-8"?> <svg xmlns="http://www.w3.org/2000/svg" xmlns:xlink="http://www.w3.org/1999/xlink" width="324.031" height="98.591" viewBox="0 0 324.031 98.591"><defs><linearGradient id="a" y1="0.5" x2="1" y2="0.5" gradientUnits="objectBoundingBox"><stop offset="0" stop-color="#50a8df"></stop><stop offset="0.114" stop-color="#46a0da"></stop><stop offset="0.305" stop-color="#2d8dcd"></stop><stop offset="0.546" stop-color="#046db8"></stop><stop offset="0.567" stop-color="#006ab6"></stop><stop offset="1" stop-color="#00489a"></stop></linearGradient><radialGradient id="b" cx="0.5" cy="0.5" r="0.5" gradientUnits="objectBoundingBox"><stop offset="0" stop-color="#dfdbd7"></stop><stop offset="0" stop-color="#eae8e5"></stop><stop offset="0" stop-color="#fff"></stop><stop offset="0.108" stop-color="#f0f0f0"></stop><stop offset="0.314" stop-color="#c9cacb"></stop><stop offset="0.522" stop-color="#9c9ea0"></stop><stop offset="0.603" stop-color="#929497"></stop><stop offset="0.74" stop-color="#787c7e"></stop><stop offset="0.914" stop-color="#4d5557"></stop><stop offset="1" stop-color="#363f42"></stop></radialGradient></defs><g transform="translate(162.015 49.246)"><g transform="translate(-162.015 -49.246)"><path d="M15.539,67.262s6.139-8.569,12.149-8.057l36.575-.64s6.65-2.174,15.091,10.359c0,0-14.068,19.566-43.353,17.648C36,86.572,15.8,78.132,15.539,67.262Z" transform="translate(0 0)" stroke="#1a1818" stroke-miterlimit="10" stroke-width="0.75" fill="url(#a)"></path><path d="M76.77,70.74A40.919,40.919,0,1,1,61.977,3.4,44.823,44.823,0,1,0,86.241,27.666,40.921,40.921,0,0,1,76.77,70.74Z" transform="translate(0 0)" fill="url(#b)"></path><path d="M64.542,57.678s-1.1,8.766-5.89,11.5c0,0-18.079,9.177-28.762-3.835,0,0-3.972-8.765-2.191-16.846,0,0,3.013-17.12,8.765-19.038,0,0,4.109-2.328,6.3.822,0,0,3.15,2.876,10-1.917,0,0,6.155-2.677,10,13.663.045.191.09.384.134.581C62.9,42.613,65.089,53.98,64.542,57.678Z" transform="translate(0 0)" fill="#ffddc8" stroke="#1a1818" stroke-miterlimit="10" stroke-width="0.75"></path><path d="M36.984,22.328s-14.418-9.945,7.933-13.77c0,0,22.743-1.33,12.116,13.96,0,0-4.8-2.152-6.723-1.923C50.31,20.595,49.813,18.8,36.984,22.328Z" transform="translate(0 0)" fill="#fff" stroke="#1a1818" stroke-miterlimit="10" stroke-width="0.75"></path><path d="M34.958,23.575s-10.546,3.835-10,23.01A5.26,5.26,0,0,1,27.7,48.5s4.52-26.023,15.066-18.216c0,0,3.835,2.739,10-1.917,0,0,7.67-1.918,11.094,19.859l3.287-1.643S67.007,29.19,57.42,24.534C57.42,24.534,49.75,15.631,34.958,23.575Z" transform="translate(0 0)" fill="#fff" stroke="#1a1818" stroke-miterlimit="10" stroke-width="0.75"></path><path d="M50.271,43.995s8.518-.287,9.888,1.357c0,0,1.917-2.465-3.835-3.835C56.324,41.517,49.833,40.036,50.271,43.995Z" transform="translate(0 0)" fill="#fff" stroke="#1a1818" stroke-miterlimit="10" stroke-width="0.75"></path><path d="M33.451,49.05s4.52-1.918,6.438.274" transform="translate(0 0)" fill="none" stroke="#1a1818" stroke-linecap="round" stroke-miterlimit="10" stroke-width="1"></path><path d="M52.234,48.707s4.519-1.917,6.437.274" transform="translate(0 0)" fill="none" stroke="#1a1818" stroke-linecap="round" stroke-miterlimit="10" stroke-width="1"></path><path d="M42.382,44.149s3.1,5.165-.713,13.255c0,0,.137,6.027,6.3,4.52,0,0,4.246-1.506,1.918-6.437,0,0-2.055-8.492.137-12.053" transform="translate(0 0)" fill="none" stroke="#1a1818" stroke-linecap="round" stroke-miterlimit="10" stroke-width="0.75"></path><path d="M41.806,60.007s-2.465-3.013-6.985,2.328c0,0-2.6,1.37-4.52-.411l1.37,1.781s6.026,7.943,12.6,2.054l3.157-.491s8.211,8.024,13.963-3.207c0,0-2.054,1.1-3.561.274,0,0-5.2-4.931-7.806-1.78C50.024,60.555,45.269,64.518,41.806,60.007Z" transform="translate(0 0)" fill="#fff" stroke="#1a1818" stroke-miterlimit="10" stroke-width="0.75"></path><path d="M34.547,66.444s-2.6,4.931,1.37,11.5l.274-3.7s10,16.983,9.176,24.242c0,0,5.2-19.175,7.533-20l1.917,3.288s5.068-11.231,3.424-15.477c0,0-4.716,4.248-10.813-1.039l-3.157.491S39.752,70.279,34.547,66.444Z" transform="translate(0 0)" fill="#fff" stroke="#1a1818" stroke-miterlimit="10" stroke-width="0.75"></path><path d="M27.591,47.777S22.324,41.192,21.55,50.3c0,0,1.859,9.949,5.886,6.025Z" transform="translate(0 0)" fill="#ffddc8" stroke="#1a1818" stroke-miterlimit="10" stroke-width="0.75"></path><g transform="translate(0 0)"><path d="M129.239,35.6h3.636V62.294h-3.944l-12.2-19.475V62.294h-3.636V35.6h3.636l12.509,19.934Z" fill="#0063b0"></path><path d="M153.61,54.008H140.762a4.964,4.964,0,0,0,1.633,3.571,5.021,5.021,0,0,0,3.451,1.355,5.272,5.272,0,0,0,4.683-2.406L152.5,59.2a8.348,8.348,0,0,1-6.9,3.4,7.438,7.438,0,0,1-5.87-2.845,11.4,11.4,0,0,1-2.419-7.637,11.19,11.19,0,0,1,2.465-7.619,7.538,7.538,0,0,1,11.493-.324,9.692,9.692,0,0,1,2.341,6.893Zm-12.848-3.361h9.4a5.526,5.526,0,0,0-1.294-3.933,4.209,4.209,0,0,0-3.189-1.375,4.826,4.826,0,0,0-3.4,1.432A5.088,5.088,0,0,0,140.762,50.647Z" fill="#0063b0"></path><path d="M165.072,62.294h-3.944l-5.669-20.315h3.574L163.1,57.33l4.067-15.351h3.574l4.068,15.351,4.066-15.351h3.574L176.78,62.294h-3.944l-3.882-13.9Z" fill="#0063b0"></path><path d="M197.054,56.223a6.363,6.363,0,0,1-1.7,4.64,5.806,5.806,0,0,1-4.344,1.737,9.642,9.642,0,0,1-3.712-.8,10.687,10.687,0,0,1-3.406-2.253l1.664-3.322q2.866,2.673,5.546,2.673a2.517,2.517,0,0,0,1.849-.669,2.286,2.286,0,0,0,.678-1.7q0-1.527-3.266-2.749a3.572,3.572,0,0,0-.37-.153q-5.115-1.719-5.114-5.728a5.979,5.979,0,0,1,1.771-4.525,6.377,6.377,0,0,1,4.607-1.7,8.35,8.35,0,0,1,5.361,2.063l-1.295,3.17a6.714,6.714,0,0,0-4.344-1.643,3.355,3.355,0,0,0-2,.554,1.913,1.913,0,0,0-.77,1.661,1.548,1.548,0,0,0,.8,1.451,6.818,6.818,0,0,0,1.555.65q1,.306,1.772.61a15.451,15.451,0,0,1,1.494.687,9.424,9.424,0,0,1,1.557,1.07A5.234,5.234,0,0,1,197.054,56.223Z" fill="#0063b0"></path><path d="M216.418,39.115a4.076,4.076,0,0,0-2.6.8,2.9,2.9,0,0,0-1.016,2.425,3.07,3.07,0,0,0,1.016,2.482,13.551,13.551,0,0,0,4.33,1.851,11.034,11.034,0,0,1,4.991,2.788,7.478,7.478,0,0,1,1.679,5.289,7.773,7.773,0,0,1-2.126,5.671,7.446,7.446,0,0,1-5.577,2.177,11.824,11.824,0,0,1-8.966-4.315l2.281-3.4Q213.69,58.4,217.2,58.4a3.988,3.988,0,0,0,2.788-.936,3.182,3.182,0,0,0,1.032-2.481,3.046,3.046,0,0,0-.97-2.406,9.163,9.163,0,0,0-3.343-1.566,25.649,25.649,0,0,1-3.6-1.3,7.855,7.855,0,0,1-2.187-1.546q-1.913-1.8-1.911-5.5a7.38,7.38,0,0,1,2.173-5.709,7.628,7.628,0,0,1,5.376-2,10.656,10.656,0,0,1,4.1.84,10.292,10.292,0,0,1,3.512,2.367l-1.94,3.4a7.12,7.12,0,0,0-2.589-1.757A8.262,8.262,0,0,0,216.418,39.115Z" fill="#0063b0"></path><path d="M244.07,54.008H231.223a4.96,4.96,0,0,0,1.632,3.571,5.021,5.021,0,0,0,3.451,1.355,5.273,5.273,0,0,0,4.683-2.406l1.972,2.674a8.348,8.348,0,0,1-6.9,3.4,7.439,7.439,0,0,1-5.87-2.845,11.4,11.4,0,0,1-2.419-7.637,11.19,11.19,0,0,1,2.465-7.619,7.537,7.537,0,0,1,11.492-.324,9.688,9.688,0,0,1,2.342,6.893Zm-12.847-3.361h9.4a5.521,5.521,0,0,0-1.294-3.933,4.207,4.207,0,0,0-3.188-1.375,4.824,4.824,0,0,0-3.4,1.432A5.091,5.091,0,0,0,231.223,50.647Z" fill="#0063b0"></path><path d="M251.31,51.3v11h-3.45V41.979h3.45v3.7a7.141,7.141,0,0,1,2.3-2.94,5.251,5.251,0,0,1,3.159-1.07,5.5,5.5,0,0,1,4.482,2.1,9.406,9.406,0,0,1,1.71,6.071V62.294h-3.45V51.144q0-5.613-3.759-5.614A4.069,4.069,0,0,0,252.636,47,6.218,6.218,0,0,0,251.31,51.3Z" fill="#0063b0"></path><path d="M279.441,56.223a6.362,6.362,0,0,1-1.694,4.64A5.807,5.807,0,0,1,273.4,62.6a9.649,9.649,0,0,1-3.712-.8,10.672,10.672,0,0,1-3.4-2.253l1.664-3.322q2.865,2.673,5.546,2.673a2.519,2.519,0,0,0,1.849-.669,2.285,2.285,0,0,0,.677-1.7q0-1.527-3.265-2.749a3.573,3.573,0,0,0-.37-.153q-5.115-1.719-5.115-5.728a5.976,5.976,0,0,1,1.772-4.525,6.377,6.377,0,0,1,4.606-1.7,8.351,8.351,0,0,1,5.362,2.063l-1.295,3.17a6.714,6.714,0,0,0-4.344-1.643,3.355,3.355,0,0,0-2,.554,1.91,1.91,0,0,0-.77,1.661,1.549,1.549,0,0,0,.8,1.451,6.829,6.829,0,0,0,1.556.65q1,.306,1.771.61a15.465,15.465,0,0,1,1.495.687,9.377,9.377,0,0,1,1.556,1.07A5.231,5.231,0,0,1,279.441,56.223Z" fill="#0063b0"></path><path d="M298.605,54.008H285.758a4.957,4.957,0,0,0,1.633,3.571,5.017,5.017,0,0,0,3.45,1.355,5.273,5.273,0,0,0,4.683-2.406L297.5,59.2a8.347,8.347,0,0,1-6.9,3.4,7.436,7.436,0,0,1-5.869-2.845,11.389,11.389,0,0,1-2.419-7.637,11.189,11.189,0,0,1,2.464-7.619,7.538,7.538,0,0,1,11.493-.324,9.692,9.692,0,0,1,2.341,6.893Zm-12.847-3.361h9.4a5.517,5.517,0,0,0-1.294-3.933,4.206,4.206,0,0,0-3.188-1.375,4.82,4.82,0,0,0-3.4,1.432A5.087,5.087,0,0,0,285.758,50.647Z" fill="#0063b0"></path><path d="M302.61,37.931a3.145,3.145,0,0,1,0-3.819,1.881,1.881,0,0,1,3.081,0,3.137,3.137,0,0,1,0,3.819,1.881,1.881,0,0,1-3.081,0Zm3.236,24.363h-3.451V41.979h3.451Z" fill="#0063b0"></path></g><g transform="translate(0 0)"><line x2="228.554" transform="translate(95.476 30.148)" fill="none" stroke="#464749" stroke-miterlimit="10" stroke-width="1"></line><line x2="228.554" transform="translate(95.201 69.968)" fill="none" stroke="#464749" stroke-miterlimit="10" stroke-width="1"></line></g><path d="M42.4,43.8s-9.194-.286-10.672,1.357c0,0-2.069-2.465,4.139-3.835C35.867,41.323,42.873,39.842,42.4,43.8Z" transform="translate(0 0)" fill="#fff" stroke="#1a1818" stroke-miterlimit="10" stroke-width="0.75"></path><path d="M64.1,47.712s4.582-6.76,5.776,2.194c0,0-1.223,9.914-5.189,6.237Z" transform="translate(0 0)" fill="#ffddc8" stroke="#1a1818" stroke-miterlimit="10" stroke-width="0.75"></path><path d="M36.257,21.351s10.614-4.732,20.717.64c0,0,2.046,1.662-.64,2.3a24.655,24.655,0,0,0-19.822-.64S33.827,23.014,36.257,21.351Z" transform="translate(0 0)" fill="#1a1818"></path><g transform="translate(0 0)"><path d="M124.309,78.513h1.713V91.1h-1.713Z" fill="#464749"></path><path d="M130.162,85.912V91.1h-1.627V81.519h1.627v1.746a3.357,3.357,0,0,1,1.081-1.386,2.474,2.474,0,0,1,1.489-.5,2.593,2.593,0,0,1,2.113.99,4.438,4.438,0,0,1,.806,2.862V91.1h-1.627V85.839q0-2.645-1.771-2.646a1.916,1.916,0,0,0-1.467.693A2.934,2.934,0,0,0,130.162,85.912Z" fill="#464749"></path><path d="M139.82,83.139V88a1.83,1.83,0,0,0,.29,1.089.945.945,0,0,0,.813.406,1.311,1.311,0,0,0,1-.631l.668,1.423a2.522,2.522,0,0,1-1.9.953,2.22,2.22,0,0,1-1.771-.891,3.659,3.659,0,0,1-.734-2.4V83.139h-.973v-1.62h.973V78.513h1.627v3.006h2.033v1.62Z" fill="#464749"></path><path d="M151.075,87.189h-6.056a2.336,2.336,0,0,0,.77,1.683,2.365,2.365,0,0,0,1.626.639,2.485,2.485,0,0,0,2.208-1.134l.93,1.26a3.936,3.936,0,0,1-3.254,1.6,3.5,3.5,0,0,1-2.766-1.341,5.368,5.368,0,0,1-1.14-3.6,5.274,5.274,0,0,1,1.161-3.591,3.554,3.554,0,0,1,5.418-.153,4.57,4.57,0,0,1,1.1,3.249Zm-6.056-1.584h4.43a2.6,2.6,0,0,0-.61-1.854,1.984,1.984,0,0,0-1.5-.648,2.276,2.276,0,0,0-1.6.675A2.4,2.4,0,0,0,145.019,85.605Z" fill="#464749"></path><path d="M154.488,91.1h-1.627V77.739h1.627Z" fill="#464749"></path><path d="M156.942,79.611a1.484,1.484,0,0,1,0-1.8.887.887,0,0,1,1.453,0,1.48,1.48,0,0,1,0,1.8.887.887,0,0,1-1.453,0ZM158.468,91.1h-1.627V81.519h1.627Z" fill="#464749"></path><path d="M167.966,81.519v8.353a5.637,5.637,0,0,1-1.112,3.806A3.621,3.621,0,0,1,164,94.947a4.45,4.45,0,0,1-3.151-1.35l.77-1.53a3.368,3.368,0,0,0,2.287,1.062,2.358,2.358,0,0,0,1.83-.738,3.426,3.426,0,0,0,.675-2.357V88.809a3.24,3.24,0,0,1-1.038,1.351,2.475,2.475,0,0,1-1.518.5,3.02,3.02,0,0,1-2.527-1.332,6.05,6.05,0,0,1,0-6.624,3.014,3.014,0,0,1,2.52-1.332,2.85,2.85,0,0,1,2.491,1.566V81.519Zm-6.028,4.419a3.5,3.5,0,0,0,.588,2.034,1.831,1.831,0,0,0,1.583.856A1.923,1.923,0,0,0,165.722,88a3.353,3.353,0,0,0,.617-2.061,3.442,3.442,0,0,0-.625-2.088A1.914,1.914,0,0,0,164.1,83a1.81,1.81,0,0,0-1.576.881A3.631,3.631,0,0,0,161.938,85.938Z" fill="#464749"></path><path d="M177.507,87.189h-6.056a2.332,2.332,0,0,0,.77,1.683,2.362,2.362,0,0,0,1.626.639,2.487,2.487,0,0,0,2.208-1.134l.929,1.26a3.934,3.934,0,0,1-3.253,1.6,3.508,3.508,0,0,1-2.767-1.341,5.374,5.374,0,0,1-1.14-3.6,5.27,5.27,0,0,1,1.162-3.591,3.553,3.553,0,0,1,5.417-.153,4.566,4.566,0,0,1,1.1,3.249Zm-6.056-1.584h4.43a2.6,2.6,0,0,0-.611-1.854,1.982,1.982,0,0,0-1.5-.648,2.28,2.28,0,0,0-1.606.675A2.4,2.4,0,0,0,171.451,85.605Z" fill="#464749"></path><path d="M180.92,85.912V91.1h-1.626V81.519h1.626v1.746A3.367,3.367,0,0,1,182,81.879a2.474,2.474,0,0,1,1.489-.5,2.591,2.591,0,0,1,2.112.99,4.426,4.426,0,0,1,.807,2.862V91.1h-1.627V85.839q0-2.645-1.771-2.646a1.916,1.916,0,0,0-1.467.693A2.929,2.929,0,0,0,180.92,85.912Z" fill="#464749"></path><path d="M192.1,91.239a3.533,3.533,0,0,1-2.773-1.359,5.282,5.282,0,0,1-1.162-3.554,5.206,5.206,0,0,1,1.213-3.574,3.794,3.794,0,0,1,2.955-1.377,3.659,3.659,0,0,1,2.948,1.5l-.958,1.458a2.823,2.823,0,0,0-2.018-1.081,2.294,2.294,0,0,0-1.765.837,3.119,3.119,0,0,0-.748,2.161,3.458,3.458,0,0,0,.74,2.24,2.261,2.261,0,0,0,1.823.918,2.65,2.65,0,0,0,2.04-1.224l.959,1.3A4.1,4.1,0,0,1,192.1,91.239Z" fill="#464749"></path><path d="M197.143,79.611a1.477,1.477,0,0,1,0-1.8.886.886,0,0,1,1.452,0,1.484,1.484,0,0,1,0,1.8.886.886,0,0,1-1.452,0ZM198.667,91.1h-1.626V81.519h1.626Z" fill="#464749"></path><path d="M207.279,91.1H205.8V89.817a2.958,2.958,0,0,1-2.571,1.422,2.621,2.621,0,0,1-2-.846,3.173,3.173,0,0,1-.791-2.259,2.6,2.6,0,0,1,.842-2.115,3.452,3.452,0,0,1,2.28-.7h2.107v-.36q0-1.908-1.714-1.908a3.549,3.549,0,0,0-2.237.972l-.726-1.26a4.439,4.439,0,0,1,3.2-1.386,3.039,3.039,0,0,1,2.23.855,3.656,3.656,0,0,1,.863,2.691Zm-1.626-3.564v-.81h-1.83q-1.758,0-1.758,1.368a1.328,1.328,0,0,0,.437,1.072,1.817,1.817,0,0,0,1.212.368,1.931,1.931,0,0,0,1.358-.54A1.9,1.9,0,0,0,205.653,87.531Z" fill="#464749"></path><path d="M213.757,78.513h1.713V91.1h-1.713Z" fill="#464749"></path><path d="M219.609,85.912V91.1h-1.626V81.519h1.626v1.746a3.367,3.367,0,0,1,1.082-1.386,2.475,2.475,0,0,1,1.49-.5,2.591,2.591,0,0,1,2.112.99,4.432,4.432,0,0,1,.807,2.862V91.1h-1.627V85.839q0-2.645-1.772-2.646a1.918,1.918,0,0,0-1.467.693A2.929,2.929,0,0,0,219.609,85.912Z" fill="#464749"></path><path d="M229.3,80.727v.792h2.033v1.62H229.3V91.1H227.67V83.139H226.7v-1.62h.973v-.738a3.672,3.672,0,0,1,.733-2.4,2.228,2.228,0,0,1,1.773-.891,2.518,2.518,0,0,1,1.894.954l-.668,1.422a1.309,1.309,0,0,0-1-.63.947.947,0,0,0-.813.4A1.839,1.839,0,0,0,229.3,80.727Z" fill="#464749"></path><path d="M239.173,89.808a3.664,3.664,0,0,1-5.81,0,5.855,5.855,0,0,1,0-7,3.664,3.664,0,0,1,5.81,0,5.859,5.859,0,0,1,0,7Zm-4.655-1.242a2.191,2.191,0,0,0,3.5,0,4.043,4.043,0,0,0,0-4.518,2.191,2.191,0,0,0-3.5,0,4.043,4.043,0,0,0,0,4.518Z" fill="#464749"></path><path d="M246.23,83.41a2,2,0,0,0-1.815.971,4.868,4.868,0,0,0-.61,2.611v4.1h-1.626V81.519H243.8v1.926a4,4,0,0,1,1.067-1.476,2.263,2.263,0,0,1,1.431-.594l.014,2.035Z" fill="#464749"></path><path d="M249.57,85.912V91.1h-1.626V81.519h1.626v1.746a3.022,3.022,0,0,1,1.053-1.386,2.561,2.561,0,0,1,1.519-.5,2.469,2.469,0,0,1,2.483,1.872,3.331,3.331,0,0,1,2.86-1.872,2.6,2.6,0,0,1,2.114.99,4.432,4.432,0,0,1,.806,2.862V91.1h-1.627V85.839q0-2.645-1.771-2.646a1.929,1.929,0,0,0-1.446.657,2.8,2.8,0,0,0-.646,1.917V91.1h-1.627V85.839a3.95,3.95,0,0,0-.392-2.007,1.343,1.343,0,0,0-1.234-.639,1.918,1.918,0,0,0-1.467.693A2.929,2.929,0,0,0,249.57,85.912Z" fill="#464749"></path><path d="M268.93,91.1h-1.482V89.817a2.957,2.957,0,0,1-2.57,1.422,2.618,2.618,0,0,1-2-.846,3.168,3.168,0,0,1-.791-2.259,2.594,2.594,0,0,1,.842-2.115,3.451,3.451,0,0,1,2.28-.7h2.106v-.36q0-1.908-1.714-1.908a3.553,3.553,0,0,0-2.237.972l-.725-1.26a4.436,4.436,0,0,1,3.2-1.386,3.038,3.038,0,0,1,2.229.855,3.652,3.652,0,0,1,.864,2.691ZM267.3,87.531v-.81h-1.83q-1.758,0-1.758,1.368a1.327,1.327,0,0,0,.436,1.072,1.819,1.819,0,0,0,1.212.368,1.933,1.933,0,0,0,1.359-.54A1.9,1.9,0,0,0,267.3,87.531Z" fill="#464749"></path><path d="M273.113,83.139V88a1.837,1.837,0,0,0,.29,1.089.947.947,0,0,0,.814.406,1.311,1.311,0,0,0,1-.631l.668,1.423a2.522,2.522,0,0,1-1.895.953,2.223,2.223,0,0,1-1.772-.891,3.664,3.664,0,0,1-.734-2.4V83.139h-.972v-1.62h.972V78.513h1.627v3.006h2.033v1.62Z" fill="#464749"></path><path d="M277.281,79.611a1.48,1.48,0,0,1,0-1.8.886.886,0,0,1,1.452,0,1.48,1.48,0,0,1,0,1.8.886.886,0,0,1-1.452,0ZM278.806,91.1H277.18V81.519h1.626Z" fill="#464749"></path><path d="M283.207,91.1,280.1,81.519h1.684l2.353,7.236,2.353-7.236h1.685L285.065,91.1Z" fill="#464749"></path><path d="M295.623,91.1h-1.481V89.817a2.959,2.959,0,0,1-2.571,1.422,2.619,2.619,0,0,1-2-.846,3.173,3.173,0,0,1-.791-2.259,2.594,2.594,0,0,1,.842-2.115,3.451,3.451,0,0,1,2.28-.7h2.107v-.36q0-1.908-1.714-1.908a3.553,3.553,0,0,0-2.238.972l-.725-1.26a4.438,4.438,0,0,1,3.2-1.386,3.04,3.04,0,0,1,2.23.855,3.656,3.656,0,0,1,.863,2.691ZM294,87.531v-.81h-1.83q-1.758,0-1.758,1.368a1.328,1.328,0,0,0,.437,1.072,1.817,1.817,0,0,0,1.212.368,1.933,1.933,0,0,0,1.358-.54A1.9,1.9,0,0,0,294,87.531Z" fill="#464749"></path></g></g></g></svg> 